<svg width="9" height="10" viewBox="0 0 9 10" fill="none" xmlns="http://www.w3.org/2000/svg">
<path d="M2.5 6C2.35833 6 2.2395 5.952 2.1435 5.856C2.0475 5.76 1.99967 5.64133 2 5.5C2 5.35833 2.048 5.2395 2.144 5.1435C2.24 5.0475 2.35867 4.99967 2.5 5C2.64167 5 2.7605 5.048 2.8565 5.144C2.9525 5.24 3.00033 5.35867 3 5.5C3 5.64167 2.952 5.7605 2.856 5.8565C2.76 5.9525 2.64133 6.00033 2.5 6ZM4.5 6C4.35833 6 4.2395 5.952 4.1435 5.856C4.0475 5.76 3.99967 5.64133 4 5.5C4 5.35833 4.048 5.2395 4.144 5.1435C4.24 5.0475 4.35867 4.99967 4.5 5C4.64167 5 4.7605 5.048 4.8565 5.144C4.9525 5.24 5.00033 5.35867 5 5.5C5 5.64167 4.952 5.7605 4.856 5.8565C4.76 5.9525 4.64133 6.00033 4.5 6ZM6.5 6C6.35833 6 6.2395 5.952 6.1435 5.856C6.0475 5.76 5.99967 5.64133 6 5.5C6 5.35833 6.048 5.2395 6.144 5.1435C6.24 5.0475 6.35867 4.99967 6.5 5C6.64167 5 6.7605 5.048 6.8565 5.144C6.9525 5.24 7.00033 5.35867 7 5.5C7 5.64167 6.952 5.7605 6.856 5.8565C6.76 5.9525 6.64133 6.00033 6.5 6ZM1 10C0.725001 10 0.489501 9.902 0.293501 9.706C0.0975008 9.51 -0.000332484 9.27467 8.48897e-07 9V2C8.48897e-07 1.725 0.0980008 1.4895 0.294001 1.2935C0.490001 1.0975 0.725334 0.999667 1 1H1.5V0H2.5V1H6.5V0H7.5V1H8C8.275 1 8.5105 1.098 8.7065 1.294C8.9025 1.49 9.00033 1.72533 9 2V9C9 9.275 8.902 9.5105 8.706 9.7065C8.51 9.9025 8.27467 10.0003 8 10H1ZM1 9H8V4H1V9Z" fill="black" fill-opacity="0.4"/>
</svg>
