<svg width="11" height="12" viewBox="0 0 11 12" fill="none" xmlns="http://www.w3.org/2000/svg">
<path d="M3.05556 7.2C2.88241 7.2 2.73717 7.1424 2.61983 7.0272C2.5025 6.912 2.44404 6.7696 2.44445 6.6C2.44445 6.43 2.50311 6.2874 2.62045 6.1722C2.73778 6.057 2.88282 5.9996 3.05556 6C3.2287 6 3.37394 6.0576 3.49128 6.1728C3.60861 6.288 3.66707 6.4304 3.66667 6.6C3.66667 6.77 3.608 6.9126 3.49067 7.0278C3.37333 7.143 3.2283 7.2004 3.05556 7.2ZM5.5 7.2C5.32685 7.2 5.18161 7.1424 5.06428 7.0272C4.94694 6.912 4.88848 6.7696 4.88889 6.6C4.88889 6.43 4.94756 6.2874 5.06489 6.1722C5.18222 6.057 5.32726 5.9996 5.5 6C5.67315 6 5.81839 6.0576 5.93572 6.1728C6.05306 6.288 6.11152 6.4304 6.11111 6.6C6.11111 6.77 6.05244 6.9126 5.93511 7.0278C5.81778 7.143 5.67274 7.2004 5.5 7.2ZM7.94444 7.2C7.7713 7.2 7.62605 7.1424 7.50872 7.0272C7.39139 6.912 7.33293 6.7696 7.33333 6.6C7.33333 6.43 7.392 6.2874 7.50933 6.1722C7.62667 6.057 7.7717 5.9996 7.94444 6C8.11759 6 8.26283 6.0576 8.38017 6.1728C8.4975 6.288 8.55596 6.4304 8.55556 6.6C8.55556 6.77 8.49689 6.9126 8.37955 7.0278C8.26222 7.143 8.11718 7.2004 7.94444 7.2ZM1.22222 12C0.886112 12 0.598279 11.8824 0.358723 11.6472C0.119168 11.412 -0.00040637 11.1296 1.03754e-06 10.8V2.4C1.03754e-06 2.07 0.119779 1.7874 0.359334 1.5522C0.59889 1.317 0.886519 1.1996 1.22222 1.2H1.83333V0H3.05556V1.2H7.94444V0H9.16667V1.2H9.77778C10.1139 1.2 10.4017 1.3176 10.6413 1.5528C10.8808 1.788 11.0004 2.0704 11 2.4V10.8C11 11.13 10.8802 11.4126 10.6407 11.6478C10.4011 11.883 10.1135 12.0004 9.77778 12H1.22222ZM1.22222 10.8H9.77778V4.8H1.22222V10.8Z" fill="white"/>
</svg>
