<svg width="14" height="14" viewBox="0 0 14 14" fill="none" xmlns="http://www.w3.org/2000/svg">
<path fill-rule="evenodd" clip-rule="evenodd" d="M12.25 11.25V6.75C12.25 6.336 12.5852 6 13 6C13.4148 6 13.75 6.336 13.75 6.75V11.25C13.75 12.4905 12.7405 13.5 11.5 13.5H2.5C1.2595 13.5 0.25 12.4905 0.25 11.25V2.25C0.25 1.0095 1.2595 0 2.5 0H7C7.41475 0 7.75 0.336 7.75 0.75C7.75 1.164 7.41475 1.5 7 1.5H2.5C2.086 1.5 1.75 1.83675 1.75 2.25V11.25C1.75 11.6632 2.086 12 2.5 12H11.5C11.914 12 12.25 11.6632 12.25 11.25ZM11.1836 1.506L9.99633 1.5C9.58158 1.49775 9.24782 1.16025 9.25007 0.74625C9.25233 0.333 9.58757 0 10.0001 0H10.0038L13.0016 0.015C13.4141 0.01725 13.7478 0.35175 13.7478 0.76425L13.7501 3.74925C13.7501 4.164 13.4148 4.5 13.0008 4.5H13.0001C12.5861 4.5 12.2501 4.16475 12.2501 3.75075L12.2493 2.56125L7.53032 7.28025C7.38408 7.4265 7.19207 7.5 7.00007 7.5C6.80807 7.5 6.61608 7.4265 6.46982 7.28025C6.17658 6.987 6.17658 6.513 6.46982 6.21975L11.1836 1.506Z" fill="#764AF1"/>
</svg>
