<svg width="16" height="23" viewBox="0 0 16 23" fill="none" xmlns="http://www.w3.org/2000/svg">
<path fill-rule="evenodd" clip-rule="evenodd" d="M0 8.56934C0 4.14648 3.57714 0.569336 8 0.569336C12.4229 0.569336 16 4.14648 16 8.56934C16 13.3351 10.9486 19.9065 8.88 22.4093C8.42286 22.9579 7.58857 22.9579 7.13143 22.4093C5.05143 19.9065 0 13.3351 0 8.56934ZM5.14271 8.56919C5.14271 10.1463 6.42271 11.4263 7.99985 11.4263C9.57699 11.4263 10.857 10.1463 10.857 8.56919C10.857 6.99204 9.57699 5.71204 7.99985 5.71204C6.42271 5.71204 5.14271 6.99204 5.14271 8.56919Z" fill="#764AF1"/>
</svg>
