  <svg
        width="16"
        height="17"
        viewBox="0 0 16 17"
        fill="none"
        xmlns="http://www.w3.org/2000/svg"
      >
        <g clip-path="url(#clip0_424_2145)">
          <path
            fill-rule="evenodd"
            clip-rule="evenodd"
            d="M10.4006 13.4449L8.91562 8.9906L13.3707 4.53473L10.4006 13.4449ZM12.2414 3.40348L7.78632 7.85855L3.33125 6.37352L12.2414 3.40348ZM15.9944 1.53108C15.9904 1.45667 15.9768 1.38465 15.952 1.31504C15.944 1.29024 15.9352 1.26624 15.924 1.24223C15.8856 1.15662 15.8368 1.07581 15.768 1.007C15.6992 0.938188 15.6183 0.889381 15.5319 0.850975C15.5087 0.839773 15.4855 0.830972 15.4607 0.822971C15.3895 0.798167 15.3167 0.783765 15.2407 0.779764C15.2231 0.778964 15.2071 0.774963 15.1887 0.774963C15.1087 0.776564 15.0279 0.787765 14.9494 0.813369L0.547282 5.61409C0.220033 5.72371 0 6.02855 0 6.3734C0 6.71826 0.220033 7.0239 0.547282 7.13272L7.36831 9.40666L9.64305 16.2285C9.75186 16.5549 10.0567 16.775 10.4016 16.775C10.7464 16.775 11.0513 16.5549 11.1601 16.2285L15.9608 1.82632C15.9864 1.74711 15.9984 1.6671 15.9992 1.58709C16 1.56788 15.9952 1.55028 15.9944 1.53108Z"
            fill="white"
          />
        </g>
        <defs>
          <clipPath id="clip0_424_2145">
            <rect
              width="16"
              height="16"
              fill="white"
              transform="translate(0 0.774963)"
            />
          </clipPath>
        </defs>
      </svg>